HIERARCHY
ROOT hip
{
	OFFSET 0.000000 0.000000 0.000000 
	CHANNELS 6 Xposition Yposition Zposition Xrotation Zrotation Yrotation
	JOINT abdomen
	{
		OFFSET 0.000000 3.402643 0.000000 
		CHANNELS 3 Xrotation Zrotation Yrotation
		JOINT chest
		{
			OFFSET 0.000000 8.438565 -0.680529 
			CHANNELS 3 Xrotation Zrotation Yrotation
			JOINT neck
			{
				OFFSET 0.000000 10.207942 -0.272212 
				CHANNELS 3 Xrotation Zrotation Yrotation
				JOINT head
				{
					OFFSET 0.000000 3.130431 0.000000 
					CHANNELS 3 Xrotation Zrotation Yrotation
					End Site
					{
						OFFSET 0.000000 3.130435 0.000000 
					}
				}
			}
			JOINT lCollar
			{
				OFFSET 3.470700 6.669187 -0.816635 
				CHANNELS 3 Yrotation Zrotation Xrotation
				JOINT lShldr
				{
					OFFSET 3.198488 0.000000 0.000000 
					CHANNELS 3 Zrotation Yrotation Xrotation
					JOINT lForeArm
					{
						OFFSET 10.139888 0.000000 0.000000 
						CHANNELS 3 Yrotation Zrotation Xrotation
						JOINT lHand
						{
							OFFSET 8.370511 0.000000 0.000000 
							CHANNELS 3 Zrotation Yrotation Xrotation
							End Site
							{
								OFFSET 4.083176 0.000000 0.000000 
							}
						}
					}
				}
			}
			JOINT rCollar
			{
				OFFSET -3.470700 6.669187 -0.816635 
				CHANNELS 3 Yrotation Zrotation Xrotation
				JOINT rShldr
				{
					OFFSET -3.198488 0.000000 0.000000 
					CHANNELS 3 Zrotation Yrotation Xrotation
					JOINT rForeArm
					{
						OFFSET -10.139888 0.000000 0.000000 
						CHANNELS 3 Yrotation Zrotation Xrotation
						JOINT rHand
						{
							OFFSET -8.370511 0.000000 0.000000 
							CHANNELS 3 Zrotation Yrotation Xrotation
							End Site
							{
								OFFSET -4.083176 0.000000 0.000000 
							}
						}
					}
				}
			}
		}
	}
	JOINT lThigh
	{
		OFFSET 5.308129 -1.633274 1.361059 
		CHANNELS 3 Xrotation Zrotation Yrotation
		JOINT lShin
		{
			OFFSET -2.041588 -20.007561 0.000000 
			CHANNELS 3 Xrotation Zrotation Yrotation
			JOINT lFoot
			{
				OFFSET 0.000000 -19.190928 -1.224953 
				CHANNELS 3 Xrotation Yrotation Zrotation
				End Site
				{
					OFFSET 0.000000 -2.449906 4.627600 
				}
			}
		}
	}
	JOINT rThigh
	{
		OFFSET -5.308129 -1.633274 1.361059 
		CHANNELS 3 Xrotation Zrotation Yrotation
		JOINT rShin
		{
			OFFSET 2.041588 -20.007561 0.000000 
			CHANNELS 3 Xrotation Zrotation Yrotation
			JOINT rFoot
			{
				OFFSET 0.000000 -19.190928 -1.224953 
				CHANNELS 3 Xrotation Yrotation Zrotation
				End Site
				{
					OFFSET 0.000000 -2.449906 4.627600 
				}
			}
		}
	}
}
MOTION
Frames: 6
Frame Time: 0.016667
0.448840 40.617191 -4.889686 -13.160456 -7.466980 -47.859951 0.000000 0.000000 0.000000 10.536505 4.205483 -16.259510 10.524845 -8.921577 4.058278 -4.413560 -0.708247 27.848337 -7.249579 -25.000000 -10.790652 -59.479782 -9.362159 2.771722 -91.900322 -17.324381 -19.456928 28.067945 16.052092 1.976180 4.864449 11.526831 -11.010883 58.280926 -6.631995 -0.168375 98.873695 29.429670 -11.150510 5.421040 1.756039 14.417333 9.869972 1.289796 15.586936 34.786964 -13.055065 20.539877 -29.780758 9.693898 0.717258 -11.855247 -16.727877 -4.116878 9.226987 -2.724375 -7.664797 18.029268 10.173609 8.264037 
0.352311 40.518322 -5.074318 -14.010037 -8.645383 -48.604912 0.000000 0.000000 0.000000 12.378276 3.596283 -15.412192 9.694329 -8.228073 4.391752 -4.091066 -0.833822 28.004938 -7.476449 -25.000000 -10.376288 -59.834942 -9.327998 2.833255 -91.400696 -16.596567 -18.784298 28.769672 16.592413 2.036543 4.862124 12.122800 -11.032035 58.104698 -6.450869 -0.419632 98.678314 29.736315 -11.055257 5.422741 1.329337 14.927189 10.834332 2.051081 15.961054 36.798656 -13.612146 20.604046 -30.838181 9.815358 0.426214 -11.880344 -15.686610 -4.646811 11.302732 -3.514473 -5.773616 17.113323 9.149273 7.604671 
0.316833 40.475132 -5.118896 -14.249038 -9.186275 -48.782074 0.000000 0.000000 0.000000 13.049381 3.301358 -15.182139 9.702837 -7.866684 4.580578 -4.169327 -0.756380 28.044619 -7.550125 -25.000000 -10.199983 -59.805889 -9.345311 2.957934 -90.748924 -15.957250 -18.559290 28.613811 16.328970 2.243906 4.888267 12.557953 -11.044401 57.915176 -6.346447 -0.116835 98.567360 29.594162 -10.804356 5.378627 1.097863 15.120084 11.234537 2.392701 15.961959 37.367699 -13.770737 20.686668 -31.123638 9.874628 0.431159 -11.773055 -15.344797 -4.893557 12.070875 -3.650468 -5.144463 16.725758 8.896299 7.450943 
0.133223 40.408680 -5.006496 -14.105179 -10.435009 -49.689751 0.000000 0.000000 0.000000 14.270222 3.161282 -14.488986 9.898325 -7.160053 4.937159 -4.560204 -0.591995 28.263613 -7.447724 -25.000000 -9.519931 -60.285435 -9.336921 3.427329 -90.588570 -14.433504 -18.027838 28.970661 15.961534 2.841440 5.148341 13.296651 -11.041367 57.405102 -5.725985 1.185102 98.029457 28.822323 -9.884980 5.057408 0.748652 15.341743 11.724354 3.437659 16.154554 38.478027 -14.129332 21.202288 -31.621943 10.110193 0.284915 -11.774944 -14.693673 -4.594779 13.898755 -2.821305 -4.243115 15.601517 8.374876 7.006726 
0.036091 40.414597 -4.943114 -13.860210 -10.512383 -50.069458 0.000000 0.000000 0.000000 14.299693 3.170334 -14.270117 9.797569 -7.033027 4.949640 -4.599342 -0.524101 28.457144 -7.390716 -25.000000 -9.303695 -60.616302 -9.297303 3.556462 -90.475937 -13.492200 -18.077553 28.633595 15.645762 3.117726 5.194613 13.348381 -10.990428 57.352005 -5.512366 1.498231 97.843491 28.637217 -9.513449 5.000657 0.725120 15.319689 11.580487 3.623576 16.270775 38.645264 -14.198654 21.401476 -31.682440 10.180930 0.250081 -12.036848 -14.583905 -4.465066 14.335293 -2.431523 -3.940264 15.260080 8.220771 6.824179 
-0.272142 40.482197 -4.815467 -13.200896 -9.969432 -50.556751 0.000000 0.000000 0.000000 13.858582 3.100585 -14.059233 9.515653 -6.867283 4.660712 -4.706894 -0.378596 29.001440 -7.634247 -25.000000 -8.821252 -61.430592 -9.444248 3.660490 -90.656258 -12.439939 -17.163010 28.785416 15.399014 3.173084 4.920080 13.207930 -10.987756 57.578365 -5.021347 1.855252 97.453918 28.690052 -8.578242 4.918963 0.692505 15.366845 10.805268 3.905741 16.361671 38.865566 -14.386813 21.492321 -31.727055 10.300267 0.026668 -13.182713 -15.008599 -4.258227 15.548733 -1.125599 -2.865063 14.373846 7.362998 6.410160 
